<svg xmlns="http://www.w3.org/2000/svg" version="1.1" xmlns:xlink="http://www.w3.org/1999/xlink" xmlns:svgjs="http://svgjs.dev/svgjs" viewBox="0 0 6.264007148708558 4.9377359199790405"><g transform="matrix(1,0,0,1,3.1248271534731544,4.662435640664861)"><g><path d=" M -2.133484785239914 -1.3246906302000365 L -1.9499170890953323 -1.458686529137916 L -1.9686602871530718 -1.553858439524166 L -2.592475284096904 -1.0987421361598866 L -2.5828138417991005 -1.0496844503937786 L -1.8388105026705879 -0.8945231428276728 L -1.8476990295845674 -0.9396562137324922 L -2.0668208333850675 -0.9861925984138905 L -2.133484785239914 -1.3246906302000365 M -2.173578896664334 -1.2953911041102475 L -2.11464409864773 -0.9961392209369881 L -2.473117854528974 -1.0723072348561815 L -2.4738907699127983 -1.07623184971747 L -2.173578896664334 -1.2953911041102475 M -2.6458927302746353 -1.6399392840087668 L -2.1809637683584975 -1.817787703657586 L -1.9186433859486183 -1.78019758564321 L -1.9057350812719833 -1.870277415074527 L -2.1769644578014433 -1.9091441786063725 L -2.5637618686507717 -2.213084572368465 L -2.571421741755588 -2.15963060765098 L -2.236508776268158 -1.8954520590358144 L -2.237076174275922 -1.8914925060937784 L -2.631282231574708 -1.7418977722661915 L -2.6458927302746353 -1.6399392840087668 M -2.4442421086137545 -2.5673996870767444 L -2.0667382258190017 -2.3615093801779357 Q -2.030743669552525 -2.3418779788224677 -1.9834563098931515 -2.32519998084774 Q -1.9361689502337776 -2.308521982873012 -1.8844930799413562 -2.314509839711717 Q -1.8328172096489346 -2.3204976965504223 -1.7795465380985156 -2.3586485229185024 Q -1.7262758665480966 -2.396799349286582 -1.6774367704930304 -2.4863467819495235 Q -1.6467926317918122 -2.5425334063654867 -1.6406496258950776 -2.5955665420313387 Q -1.6345066199983427 -2.6485996776971907 -1.6491933888744037 -2.6947683772671502 Q -1.6638801577504647 -2.7409370768371097 -1.696563402710177 -2.7781265309727035 Q -1.7292466476698891 -2.8153159851082976 -1.7757761960143585 -2.840693162470244 L -2.1761058949780963 -3.0590326507164223 L -2.1971737403351836 -3.0204043464304475 L -1.825815269585927 -2.8178657422020845 Q -1.8065011174429397 -2.807331819523541 -1.7872268219639091 -2.7956805735048946 Q -1.7679525264848788 -2.784029327486248 -1.7505934896746744 -2.768866417441604 Q -1.7332344528644699 -2.75370350739696 -1.7189478547271513 -2.733951466650172 Q -1.7046612565898325 -2.7141994259033844 -1.6949233977909757 -2.6861071830948524 Q -1.6779220015569334 -2.6358284348398184 -1.6871778374902353 -2.5896188092064527 Q -1.6964336734235372 -2.5434091835730874 -1.7198955921166572 -2.5003912992546153 Q -1.7400058081393317 -2.4635188269816397 -1.7669801929080364 -2.4412111474440934 Q -1.7939545776767414 -2.4189034679065466 -1.8306660191947157 -2.405893085065433 Q -1.8592370766704545 -2.3952773102600773 -1.8825411728069215 -2.3943186115262147 Q -1.9058452689433882 -2.393359912792352 -1.9258375190733663 -2.397429302763883 Q -1.9458297692033442 -2.401498692735414 -1.9638669040005392 -2.4101970700730453 Q -1.9819040387977342 -2.4188954474106765 -1.9994623589277227 -2.428471740754807 L -2.4006699738979598 -2.647290043668192 L -2.4442421086137545 -2.5673996870767444 M -1.5947750649877923 -2.9596822783159373 Q -1.5649757620950817 -2.9286178042803366 -1.5265091981706238 -2.9157502691688397 Q -1.4880426342461661 -2.902882734057343 -1.4451893819577406 -2.9077917836908815 Q -1.4023361296693149 -2.9127008333244206 -1.3573077637667588 -2.9341180288491735 Q -1.3122793978642024 -2.955535224373927 -1.2693564910152948 -2.993040211610827 Q -1.2256805507128978 -3.0312031810799525 -1.1998762463767996 -3.0723418232273305 Q -1.174071942040701 -3.1134804653747086 -1.1663293761134281 -3.1547727488289063 Q -1.1585868101861554 -3.196065032283104 -1.169377550615716 -3.2357709502422933 Q -1.1801682910452764 -3.2754768682014825 -1.2097774914954604 -3.3093633736085146 Q -1.2505723898934917 -3.35605144772487 -1.2999067251246088 -3.3653988199386937 Q -1.3492410603557259 -3.374746192152518 -1.4016936450969897 -3.3641054048714687 Q -1.4541462298382535 -3.35346461759042 -1.5070302332335106 -3.331159188096899 Q -1.5599142366287677 -3.308853758603378 -1.6080899368605606 -3.293318253874647 Q -1.6562656370923534 -3.2777827491459153 -1.6967172121884153 -3.2769641697376293 Q -1.7371687872844772 -3.2761455903293433 -1.7654620232702085 -3.3085260288293963 Q -1.7812535968436398 -3.326598831713147 -1.7871643724587516 -3.349321347674805 Q -1.7930751480738631 -3.372043863636463 -1.787836686876834 -3.397204517926191 Q -1.782598225679805 -3.4223651722159194 -1.7662580532812668 -3.44925845699086 Q -1.7499178808827285 -3.4761517417658006 -1.720549576196634 -3.5018130488226267 Q -1.6716024017198097 -3.544581893917337 -1.619244868199809 -3.55381166551267 Q -1.5668873346798085 -3.563041437108003 -1.5220421153505392 -3.5238763212099267 L -1.4708358405132462 -3.568619113001316 Q -1.4996993838265573 -3.5925334573870735 -1.534923562200515 -3.600930317388264 Q -1.570147740574473 -3.6093271773894546 -1.6077334468467797 -3.60370893175475 Q -1.6453191531190865 -3.598090686120045 -1.6827258214237917 -3.57934925697652 Q -1.720132489728497 -3.5606078278329956 -1.7532659616820396 -3.531656609615038 Q -1.7879055005425615 -3.5013894269326276 -1.8112606020756643 -3.4650467628533606 Q -1.8346157036087674 -3.428704098774093 -1.8432026660524847 -3.3906578890287036 Q -1.8517896284962023 -3.3526116792833136 -1.842691369257839 -3.314082837114991 Q -1.8335931100194758 -3.275553994946668 -1.803983909569292 -3.2416674895396356 Q -1.7651629578679395 -3.197238515783749 -1.718884593903104 -3.1898687784249127 Q -1.672606229938269 -3.182499041066076 -1.6225516342310604 -3.1943644297486227 Q -1.572497038523852 -3.206229818431169 -1.5214005675410556 -3.2283013080298404 Q -1.4703040965582592 -3.2503727976285113 -1.4218944564316165 -3.2641207699447823 Q -1.3734848163049738 -3.277868742261053 -1.3304963635012699 -3.2742641721696644 Q -1.2875079106975662 -3.270659602078276 -1.253292834621798 -3.2315018624968164 Q -1.2105239895270878 -3.1825546880199918 -1.2265536116010547 -3.128709528384554 Q -1.2425832336750218 -3.0748643687491164 -1.3020728765007006 -3.0228837724032376 Q -1.3495139840705457 -2.98143089177298 -1.3889859621348848 -2.968852618930959 Q -1.428457940199224 -2.9562743460889376 -1.4586522006102212 -2.9604344708746724 Q -1.4888464610212184 -2.964594595660407 -1.5102382598851902 -2.9784380396453183 Q -1.5316300587491622 -2.9922814836302294 -1.543568790150499 -3.004425070107326 L -1.5947750649877923 -2.9596822783159373 M -0.9440282526846002 -3.638546968339616 L -0.5481069627125985 -3.7756867953298308 L -0.4342056266920855 -3.4468547931573807 L -0.3482179479630828 -3.4766393379213656 L -0.5773298307629651 -4.138083020452156 L -0.6633175094919679 -4.108298475688171 L -0.5631628864394478 -3.819153094467569 L -0.9590841764114496 -3.6820132674773536 L -1.0592387994639696 -3.9711586486979558 L -1.1452264781929724 -3.9413741039339714 L -0.91611459539309 -3.279930421403181 L -0.8301269166640872 -3.3097149661671654 L -0.9440282526846002 -3.638546968339616 M 0.22854227949364253 -3.6672752837779066 Q 0.22036439297219781 -3.625012745140925 0.23204978829964362 -3.58617073777723 Q 0.24373518362708946 -3.5473287304135352 0.27247067604089187 -3.51516086639156 Q 0.3012061684546943 -3.4829930023695845 0.3446796983908921 -3.4585737027300265 Q 0.38815322832708976 -3.4341544030904685 0.4435516110231489 -3.42073727990176 Q 0.499921895170016 -3.407084768586934 0.5484107463982383 -3.4097458410337738 Q 0.5968995976264605 -3.4124069134806136 0.6350924367821863 -3.429908543039739 Q 0.6732852759379122 -3.4474101725988646 0.6994888627188118 -3.479133540008644 Q 0.7256924494997115 -3.5108569074184235 0.7362849151750077 -3.554592472704786 Q 0.7508789789943047 -3.6148503626548854 0.7300478650009039 -3.660537501871452 Q 0.7092167510075031 -3.706224641088019 0.6702611188870475 -3.742925577398905 Q 0.6313054867665919 -3.779626513709791 0.5825738439676715 -3.8099493926977503 Q 0.5338422011687509 -3.84027227168571 0.4933565462285303 -3.8706558485663436 Q 0.45287089128830965 -3.9010394254469776 0.42886203759232006 -3.9336058950776356 Q 0.4048531838963304 -3.966172364708293 0.41497487331939126 -4.0079641270930395 Q 0.4206241883462159 -4.031289761912433 0.43577230422817204 -4.049228117055167 Q 0.4509204201101282 -4.0671664721979 0.47449291580651753 -4.077405488100012 Q 0.4980654115029069 -4.087644504002124 0.5294586422252667 -4.08981592400127 Q 0.5608518729476264 -4.091987344000415 0.5987560295291405 -4.082807207081825 Q 0.6619296238316639 -4.067506978884175 0.6996779663751937 -4.030069529248599 Q 0.7374263089187238 -3.992632079613022 0.7313136210842441 -3.9334067890064053 L 0.7974029197391919 -3.917400396430402 Q 0.8002808717006982 -3.954773078867006 0.7868148909542012 -3.9883873223143156 Q 0.773348910207704 -4.022001565761625 0.7470735203672589 -4.049457965538956 Q 0.7207981305268139 -4.076914365316287 0.6839076970933236 -4.096652549657539 Q 0.647017263659833 -4.11639073399879 0.6042535998242786 -4.126747811547968 Q 0.5595461330871082 -4.137575665349382 0.5163875653651617 -4.13568145517357 Q 0.4732289976432151 -4.133787244997757 0.4372001750420544 -4.118848237601879 Q 0.4011713524408937 -4.103909230206002 0.37495259118682545 -4.074247359760897 Q 0.34873382993275714 -4.044585489315793 0.33814136425746094 -4.0008499240294295 Q 0.32425346481651696 -3.9435077384317547 0.34493653580052164 -3.901457642419134 Q 0.36561960678452626 -3.8594075464065134 0.4041918077694681 -3.825371751848765 Q 0.4427640087544099 -3.7913359572910164 0.49027318750323595 -3.762338061943042 Q 0.537782366252062 -3.733340166595067 0.5769430375522981 -3.701734125664339 Q 0.6161037088525342 -3.6701280847336104 0.6379637204671273 -3.63293749597503 Q 0.6598237320817204 -3.5957469072164496 0.6475835495236003 -3.545208031774431 Q 0.6322833213259502 -3.482034437471907 0.5790563586290368 -3.464058329938256 Q 0.5258293959321234 -3.446082222404605 0.44904918131828714 -3.464677884367903 Q 0.38781938991737974 -3.4795073363133175 0.35477103886761563 -3.5044884590441225 Q 0.3217226878178515 -3.529469581774928 0.3076985857023974 -3.556531077665867 Q 0.29367448358694326 -3.5835925735568064 0.29263818252117035 -3.6090518759844272 Q 0.2916018814553975 -3.6345111784120485 0.2946315781485902 -3.6512688912019033 L 0.22854227949364253 -3.6672752837779066 M 1.2471934098603845 -3.87078337733869 L 0.9048633444887011 -3.260201584011523 L 0.9842389776212328 -3.215698675513204 L 1.3265690429929162 -3.826280468840371 L 1.2471934098603845 -3.87078337733869 M 2.1364315706571806 -3.1111831482586885 L 1.7371179248055362 -2.755130326002401 L 1.7344558476297882 -2.758115848588208 L 1.7733628531038255 -3.5363961611524166 L 1.7700352566341404 -3.540128064384675 L 1.23861223636055 -3.066278327101541 L 1.2692261238816516 -3.031944817364764 L 1.6685397697332958 -3.3879976396210516 L 1.6712018469090437 -3.385012117035245 L 1.6322948414350067 -2.606731804471036 L 1.6356224379046918 -2.6029999012387774 L 2.167045458178282 -3.0768496385219115 L 2.1364315706571806 -3.1111831482586885 M 2.248957561545967 -1.864114663896326 L 2.192060176104431 -2.0537635171222743 L 2.1527894539717853 -2.041981735288421 L 2.1849738336154823 -1.934705616291925 L 2.0116079627372163 -1.8826933599034505 Q 1.9708998865330667 -1.9174619165567997 1.9439844266294533 -1.9584565261802243 Q 1.9170689667258398 -1.9994511358036489 1.8998273347738595 -2.0569204852660574 Q 1.8771258527037518 -2.132588462058229 1.8831593210692676 -2.19599664181039 Q 1.8891927894347837 -2.2594048215625504 1.9186931845352024 -2.3089727213457687 Q 1.9481935796356213 -2.358540621128987 1.998622664977076 -2.394028750857451 Q 2.049051750318531 -2.429516880585915 2.1160993246913407 -2.449632117863225 Q 2.1821890765731107 -2.4694599946080027 2.2430589509053 -2.4684071894106747 Q 2.303928825237489 -2.4673543842133463 2.354789709564896 -2.4439840944112476 Q 2.4056505938923034 -2.4206138046091485 2.4430542996767426 -2.37597959358676 Q 2.480458005461182 -2.3313453825643715 2.5008606032710254 -2.2633399857005214 Q 2.5143665483000768 -2.2183223286216345 2.5165701052235288 -2.1761780011636587 Q 2.5187736621469807 -2.1340336737056824 2.5126440393313945 -2.09878558547187 Q 2.5065144165158086 -2.063537497238057 2.492769946366412 -2.0380112452548076 Q 2.479025476217016 -2.012484993271558 2.460635367100371 -2.000703487142124 L 2.4813253254427474 -1.9317402677872337 Q 2.499811175452834 -1.946682601922321 2.5199730425069777 -1.9751782001243416 Q 2.540134909561122 -2.003673798326363 2.5524903096423643 -2.0460098832756404 Q 2.5648457097236066 -2.0883459682249175 2.56498863180272 -2.1452887427734 Q 2.5651315538818333 -2.2022315173218825 2.5438668744743906 -2.2731103816588534 Q 2.519441229209085 -2.3545252933972654 2.4759072113480114 -2.4161129487258437 Q 2.432373193486938 -2.4777006040544216 2.374328433698415 -2.514576149624524 Q 2.316283673909892 -2.551451695194626 2.2452128453033056 -2.560406432553878 Q 2.174142016696719 -2.56936116991313 2.094642749940387 -2.54551024571289 Q 2.026637353076537 -2.525107647903047 1.96940776940436 -2.4844471664411985 Q 1.9121781857321831 -2.4437866849793504 1.8752547697153603 -2.3841615111880006 Q 1.8383313536985377 -2.324536337396651 1.8288499035731498 -2.246521261266971 Q 1.8193684534477619 -2.168506185137291 1.8481045067010626 -2.0727239360332765 Q 1.8696565466410382 -2.000887249205266 1.9021275286301151 -1.950074993511732 Q 1.934598510619192 -1.8992627378181983 1.964674660676249 -1.8686126938093333 L 1.9254039385436033 -1.8568309119754798 L 1.950116944341442 -1.7744581777460273 L 2.248957561545967 -1.864114663896326 M 2.2860363344032875 -1.4359136226461795 L 2.2263537366889308 -1.021186016222317 L 1.881902168585102 -1.070755333655721 L 1.8689400769574016 -0.9806832282032829 L 2.5618024265915396 -0.8809748310671258 L 2.57476451821924 -0.9710469365195638 L 2.27188469109346 -1.0146337501247982 L 2.3315672888078165 -1.4293613565486607 L 2.6344471159335967 -1.3857745429434263 L 2.647409207561297 -1.4758466483958643 L 1.9545468579271594 -1.5755550455320213 L 1.941584766299459 -1.4854829400795833 L 2.2860363344032875 -1.4359136226461795" fill="#382d5e" fill-rule="nonzero"></path></g><g clip-path="url(#SvgjsClipPath1001)"><g clip-path="url(#SvgjsClipPath100025f02b94-a174-4cec-9347-22a511dee607)"><path d=" M 0.07187850066902357 -0.4259568918261736 C 0.7410874181651579 -0.4259568918261736 1.2835836757321262 -0.9722498857005688 1.2835836757321262 -1.6463071535173381 C 1.2835836757321262 -2.3203644213341077 0.7410874181651579 -2.8666710725333493 0.07187850066902357 -2.8666710725333493 C -0.5973304168271106 -2.8666710725333493 -1.1398266743940788 -2.3202961347098734 -1.1398266743940788 -1.6463071535173381 C -1.1398266743940788 -0.9723181723248029 -0.5973167595022637 -0.4259568918261736 0.07187850066902357 -0.4259568918261736 Z M 0.07187850066902357 -0.3845888548650347 C 0.763772234735792 -0.3845888548650347 1.3246512515466342 -0.9494831251808533 1.3246512515466342 -1.6463071535173381 C 1.3246512515466342 -2.343131181853823 0.763772234735792 -2.908039109494488 0.07187850066902357 -2.908039109494488 C -0.6200152333977449 -2.908039109494488 -1.1808942502085864 -2.34314483917867 -1.1808942502085864 -1.6463071535173381 C -1.1808942502085864 -0.9494694678560065 -0.6200425480474385 -0.3845888548650347 0.07187850066902357 -0.3845888548650347 Z" fill="#1c3423" transform="matrix(1,0,0,1,0,0)" fill-rule="evenodd"></path></g><g clip-path="url(#SvgjsClipPath100025f02b94-a174-4cec-9347-22a511dee607)"><path d=" M -0.1129597338083781 -0.3845888548650347 C 0.5562491836877559 -0.3845888548650347 1.0987454412547244 -0.9308818487394304 1.0987454412547244 -1.6049391165561997 C 1.0987454412547244 -2.2789963843729693 0.5562491836877563 -2.825303035572211 -0.1129597338083781 -2.825303035572211 C -0.7821686513045124 -2.825303035572211 -1.3246512515466335 -2.2789280977487345 -1.3246512515466335 -1.6049391165561997 C -1.3246512515466335 -0.9309501353636644 -0.7821549939796655 -0.3845888548650347 -0.1129597338083781 -0.3845888548650347 Z M -0.1129597338083781 -0.34322081790389647 C 0.5789340002583903 -0.34322081790389647 1.1398266743940788 -0.9081150882197149 1.1398266743940788 -1.6049391165561997 C 1.1398266743940788 -2.3017631448926843 0.5789340002583903 -2.8666710725333493 -0.1129597338083781 -2.8666710725333493 C -0.8048534678751463 -2.8666710725333493 -1.3657324846859882 -2.3017768022175313 -1.3657324846859882 -1.6049391165561997 C -1.3657324846859882 -0.9081014308948676 -0.8048398105502996 -0.3431935032542024 -0.1129597338083781 -0.3431935032542024 Z" fill="#1c3423" transform="matrix(1,0,0,1,0,0)" fill-rule="evenodd"></path></g><g clip-path="url(#SvgjsClipPath100025f02b94-a174-4cec-9347-22a511dee607)"><path d=" M 0.1129597338083782 -0.23979389683862662 C 0.7821686513045125 -0.23979389683862662 1.3246512515466342 -0.7861688346621027 1.3246512515466342 -1.4601578158546378 C 1.3246512515466342 -2.1341467970471726 0.7821549939796657 -2.6805080775458023 0.1129597338083782 -2.6805080775458023 C -0.5562355263629094 -2.6805080775458023 -1.0987454412547244 -2.1341331397223264 -1.0987454412547244 -1.460157815854638 C -1.0987454412547244 -0.7861824919869498 -0.5562491836877561 -0.23979389683862662 0.1129597338083782 -0.23979389683862662 Z M 0.1129597338083782 -0.19842585987748773 C 0.8048398105502994 -0.19842585987748773 1.365732484685988 -0.7633201301933064 1.365732484685988 -1.460157815854638 C 1.365732484685988 -2.15699550151597 0.8048398105502999 -2.721889771831788 0.1129597338083782 -2.721889771831788 C -0.5789203429335437 -2.721889771831788 -1.1398266743940788 -2.156981844191123 -1.1398266743940788 -1.460157815854638 C -1.1398266743940788 -0.7633337875181532 -0.5789340002583904 -0.19842585987748773 0.1129597338083782 -0.19842585987748773 Z" fill="#1c3423" transform="matrix(1,0,0,1,0,0)" fill-rule="evenodd"></path></g><path d=" M -0.1705887285657498 -1.4083052509258245 L -0.07397057272564078 -1.200978791518924 L 0.023654022237802552 -1.200978791518924 L -0.30444513196923406 -1.9054861778530519 L -0.3547670881359575 -1.9054861778530519 L -0.65267306864296 -1.200978791518924 L -0.6063768689695745 -1.200978791518924 L -0.5178102261161412 -1.4083052509258245 L -0.1705887285657498 -1.4083052509258245 M -0.19172395015577365 -1.4535950114758758 L -0.4986878827727864 -1.4535950114758758 L -0.353760649012623 -1.7927649960395913 L -0.34973489251928513 -1.7927649960395913 L -0.19172395015577365 -1.4535950114758758 M 0.09108003782232688 -1.379118516349125 C 0.09242195665343944 -1.3502672614802036 0.09997025007844795 -1.3240998442735075 0.11372491809735241 -1.3006162647290365 C 0.12747958611625687 -1.2771326851845655 0.14626644975183356 -1.2571716425717652 0.1700855090040826 -1.2407331368906356 C 0.19390456825633173 -1.224294631209506 0.22191712385580775 -1.2115464023139362 0.25412317580251065 -1.2024884502039257 C 0.28632922774921366 -1.1934304980939157 0.32155459706591993 -1.1889015220389105 0.3597992837526298 -1.1889015220389105 C 0.398714929854896 -1.1889015220389105 0.4337725593177133 -1.1935982379478047 0.4649721721410818 -1.2029916697655931 C 0.49617178496445025 -1.2123851015833813 0.5228424217328138 -1.2258042898945076 0.544984082446172 -1.2432492346989719 C 0.5671257431595302 -1.260694179503436 0.5842352082562163 -1.2818294010934599 0.5963124777362299 -1.3066548994690432 C 0.6083897472162434 -1.3314803978446266 0.6144283819562502 -1.3589897338824355 0.6144283819562502 -1.3891829075824695 C 0.6144283819562502 -1.430782391346961 0.6040285110151273 -1.464833581686444 0.5832287691328819 -1.4913364786009182 C 0.562429027250636 -1.5178393755153925 0.5364293498978288 -1.5399810362287507 0.5052297370744605 -1.557761460740993 C 0.47403012425109203 -1.5755418852532355 0.4401466737654982 -1.5904707322493632 0.40357938561767925 -1.6025480017293767 C 0.3670120974698601 -1.6146252712093905 0.3331286469842665 -1.6273735001049605 0.301929034160898 -1.6407926884160866 C 0.2707294213375294 -1.654211876727213 0.24472974398472236 -1.669643943285008 0.2239300021024767 -1.6870888880894723 C 0.20313026022023106 -1.7045338328939363 0.19273038927910813 -1.7276819327306292 0.19273038927910813 -1.7565331875995505 C 0.19273038927910813 -1.772636213572902 0.19625292621077883 -1.7877328004229192 0.20329800007412013 -1.8018229481496015 C 0.21034307393746143 -1.8159130958762841 0.22074294487858415 -1.828158105210187 0.2344976128974886 -1.8385579761513098 C 0.24825228091639306 -1.8489578470924326 0.26519400615919 -1.8573448397868864 0.28532278862587923 -1.8637189542346713 C 0.3054515710925685 -1.8700930686824564 0.32859967092926134 -1.8732801259063487 0.3547670881359575 -1.8732801259063487 C 0.3983794501471176 -1.8732801259063487 0.435449957856604 -1.8640544339424496 0.4659786112644164 -1.845603050014651 C 0.4965072646722284 -1.8271516660868523 0.5144554290383596 -1.798132671364042 0.5198231043628103 -1.7585460658462195 L 0.5882609647495542 -1.7585460658462195 C 0.5842352082562163 -1.783371564221803 0.5751772561462059 -1.8056809647890504 0.5610871084195235 -1.8254742675479616 C 0.5469969606928409 -1.8452675703068728 0.5292165361805987 -1.8620415556957806 0.5077458348827968 -1.875796223714685 C 0.48627513358499463 -1.8895508917335895 0.4619528547710783 -1.8999507626747123 0.4347789984410477 -1.9069958365380535 C 0.40760514211101717 -1.9140409104013947 0.3792571068037629 -1.9175634473330654 0.34973489251928513 -1.9175634473330654 C 0.3188707594036948 -1.9175634473330654 0.2895162849731061 -1.9135376908397275 0.26167146922751927 -1.9054861778530519 C 0.23382665348193232 -1.897434664866376 0.2093366348141269 -1.8856928750941406 0.188201413224103 -1.8702608085363455 C 0.1670661916340792 -1.8548287419785503 0.15029220624517137 -1.8353709189274172 0.13787945705737958 -1.8118873393829462 C 0.1254667078695878 -1.7884037598384754 0.11926033327569197 -1.7615653832162228 0.11926033327569197 -1.7313722095161888 C 0.11926033327569197 -1.6917856039983665 0.12932472450903665 -1.6599150317594416 0.14945350697572612 -1.6357604927994143 C 0.16958228944241538 -1.611605953839387 0.19491100737966616 -1.5914771713726976 0.22543966078747835 -1.5753741453993464 C 0.25596831419529054 -1.5592711194259947 0.2890130654114389 -1.5455164514070905 0.3245739144359234 -1.5341101413426332 C 0.36013476346040796 -1.5227038312781758 0.3931795146765562 -1.5097878625287167 0.4237081680843684 -1.4953622350942561 C 0.4542368214921808 -1.4809366076597952 0.4795655394294316 -1.463323923001442 0.49969432189612095 -1.4425241811191964 C 0.5198231043628103 -1.4217244392369508 0.529887495596155 -1.393879623491364 0.529887495596155 -1.3589897338824355 C 0.529887495596155 -1.3153773718712753 0.5139522094766924 -1.2835067996323506 0.48208163723776765 -1.2633780171656612 C 0.4502110649988429 -1.2432492346989719 0.407772881964906 -1.233184843465627 0.3547670881359575 -1.233184843465627 C 0.3124966449559098 -1.233184843465627 0.2786131944703162 -1.2387202586439665 0.25311673667917634 -1.2497910890006458 C 0.2276202788880365 -1.260861919357325 0.2081624558369034 -1.2741133678145622 0.1947432675257771 -1.2895454343723574 C 0.18132407921465088 -1.3049775009301525 0.17226612710464062 -1.320912787049615 0.16756941119574642 -1.3373512927307445 C 0.16287269528685233 -1.3537897984118743 0.16018885762462698 -1.3677122062846676 0.1595178982090707 -1.379118516349125 L 0.09108003782232688 -1.379118516349125" fill="#1c3423" transform="matrix(1,0,0,1,0,0)" fill-rule="nonzero"></path></g></g><defs><clipPath id="SvgjsClipPath1001"><path d=" M -1.3657324846859882 -2.9189649693719764 h 2.7314649693719764 v 2.7314649693719764 h -2.7314649693719764 Z"></path></clipPath><clipPath id="SvgjsClipPath100025f02b94-a174-4cec-9347-22a511dee607"><path d=" M -1.3657324846859882 -2.908039109494488 L 1.365732484685988 -2.908039109494488 L 1.365732484685988 -0.19842585987748773 L -1.3657324846859882 -0.19842585987748773 Z"></path></clipPath></defs></svg>